<?xml version="1.0" encoding="UTF-8"?>
<svg id="Layer_1" data-name="Layer 1" xmlns="http://www.w3.org/2000/svg" viewBox="0 0 32 32">
  <defs>
    <style>
      .cls-1 {
        fill: #fff;
      }
    </style>
  </defs>
  <path class="cls-1" d="m14.33,16.05L1.22,2.66c-.27-.28-.41-.65-.41-1.12s.14-.84.41-1.12C1.49.14,1.84,0,2.29,0s.8.14,1.07.42l14.17,14.5c.17.17.29.35.36.52.07.17.1.37.1.57,0,.17-.03.36-.1.55-.07.19-.19.37-.36.55L3.36,31.61c-.27.28-.63.41-1.07.39-.44-.02-.8-.17-1.07-.44-.27-.28-.41-.64-.41-1.1s.14-.82.41-1.1l13.11-13.32"/>
  <path class="cls-1" d="m18.48,15.95l13.11,13.39c.27.28.41.65.41,1.12s-.14.84-.41,1.12c-.27.28-.63.42-1.07.42s-.8-.14-1.07-.42l-14.17-14.5c-.17-.17-.29-.35-.36-.52-.07-.17-.1-.37-.1-.57,0-.17.03-.36.1-.55.07-.19.19-.37.36-.55L29.45.39c.27-.28.63-.41,1.07-.39.44.02.8.17,1.07.44.27.28.41.64.41,1.1s-.14.82-.41,1.1l-13.11,13.32"/>
</svg>