<?xml version="1.0" encoding="utf-8"?>
<!-- Generator: Adobe Illustrator 27.6.1, SVG Export Plug-In . SVG Version: 6.00 Build 0)  -->
<svg version="1.1" id="Layer_1" xmlns="http://www.w3.org/2000/svg" xmlns:xlink="http://www.w3.org/1999/xlink" x="0px" y="0px"
	 viewBox="0 0 13 23" style="enable-background:new 0 0 13 23;" xml:space="preserve">
<style type="text/css">
	.st0{fill:#FFFFFF;}
</style>
<path class="st0" d="M12.5,22.3c-0.3,0.3-0.7,0.5-1.1,0.5c-0.4,0-0.8-0.1-1.1-0.4l-9.9-9.9c-0.2-0.2-0.3-0.3-0.4-0.5
	c-0.1-0.2-0.1-0.3-0.1-0.6c0-0.2,0-0.4,0.1-0.5c0.1-0.2,0.2-0.3,0.4-0.5l9.8-9.9C10.6,0.2,11,0,11.4,0c0.4,0,0.8,0.2,1.1,0.5
	s0.4,0.7,0.4,1.1s-0.1,0.8-0.4,1.1l-8.7,8.8l8.8,8.8c0.3,0.3,0.4,0.6,0.4,1C13,21.6,12.8,22,12.5,22.3z"/>
</svg>
